<?xml version="1.0" encoding="UTF-8" standalone="no"?>
<!DOCTYPE svg PUBLIC "-//W3C//DTD SVG 1.1//EN" "http://www.w3.org/Graphics/SVG/1.1/DTD/svg11.dtd">
<svg width="100%" height="100%" viewBox="0 0 60 40" version="1.1" xmlns="http://www.w3.org/2000/svg" xmlns:xlink="http://www.w3.org/1999/xlink" xml:space="preserve" style="fill-rule:evenodd;clip-rule:evenodd;stroke-linejoin:round;stroke-miterlimit:1.41421;">
    <g transform="matrix(1,0,0,1,-289.75,-280)">
        <g>
            <path d="M349.75,315C349.75,317.75 347.5,320 344.75,320L294.75,320C292,320 289.75,317.75 289.75,315L289.75,285C289.75,282.25 292,280 294.75,280L344.75,280C347.5,280 349.75,282.25 349.75,285L349.75,315Z" style="fill:rgb(94,193,236);fill-rule:nonzero;"/>
            <path d="M348.281,281.469C349.187,282.375 349.75,283.625 349.75,285L349.75,315C349.75,316.375 349.188,317.625 348.281,318.531C347.374,319.437 346.125,320 344.75,320L319.75,320L294.75,320C293.375,320 292.125,319.438 291.219,318.531L348.281,281.469Z" style="fill:rgb(91,187,230);fill-rule:nonzero;"/>
            <g>
                <path d="M307.305,304.922L306.848,303.182L303.833,303.182L303.363,304.922L300.608,304.922L303.636,295.604L306.981,295.604L310.046,304.922L307.305,304.922ZM306.328,301.125L305.928,299.602C305.834,299.264 305.722,298.827 305.588,298.289C305.455,297.751 305.367,297.366 305.324,297.134C305.287,297.35 305.211,297.705 305.099,298.2C304.987,298.695 304.738,299.671 304.353,301.126L306.328,301.125Z" style="fill:white;fill-rule:nonzero;"/>
                <path d="M315.094,304.922L313.196,298.237L313.139,298.237C313.228,299.375 313.272,300.259 313.272,300.891L313.272,304.921L311.051,304.921L311.051,295.64L314.389,295.64L316.326,302.23L316.377,302.23L318.274,295.64L321.62,295.64L321.62,304.921L319.315,304.921L319.315,300.852C319.315,300.641 319.319,300.407 319.325,300.148C319.331,299.889 319.36,299.257 319.411,298.25L319.354,298.25L317.481,304.922L315.094,304.922L315.094,304.922Z" style="fill:white;fill-rule:nonzero;"/>
                <path d="M328.869,304.922L323.359,304.922L323.359,295.641L328.869,295.641L328.869,297.654L325.865,297.654L325.865,299.114L328.646,299.114L328.646,301.126L325.865,301.126L325.865,302.878L328.869,302.878L328.869,304.922Z" style="fill:white;fill-rule:nonzero;"/>
                <path d="M338.854,304.922L335.954,304.922L334.143,302.022L332.354,304.922L329.516,304.922L332.594,300.174L329.699,295.641L332.48,295.641L334.156,298.51L335.767,295.641L338.63,295.641L335.691,300.37L338.854,304.922Z" style="fill:white;fill-rule:nonzero;"/>
            </g>
            <g>
                <path d="M307.305,304.922L306.848,303.182L303.833,303.182L303.363,304.922L300.608,304.922L303.636,295.604L306.981,295.604L310.046,304.922L307.305,304.922ZM306.328,301.125L305.928,299.602C305.834,299.264 305.722,298.827 305.588,298.289C305.455,297.751 305.367,297.366 305.324,297.134C305.287,297.35 305.211,297.705 305.099,298.2C304.987,298.695 304.738,299.671 304.353,301.126L306.328,301.125Z" style="fill:white;fill-rule:nonzero;"/>
                <path d="M315.094,304.922L313.196,298.237L313.139,298.237C313.228,299.375 313.272,300.259 313.272,300.891L313.272,304.921L311.051,304.921L311.051,295.64L314.389,295.64L316.326,302.23L316.377,302.23L318.274,295.64L321.62,295.64L321.62,304.921L319.315,304.921L319.315,300.852C319.315,300.641 319.319,300.407 319.325,300.148C319.331,299.889 319.36,299.257 319.411,298.25L319.354,298.25L317.481,304.922L315.094,304.922L315.094,304.922Z" style="fill:white;fill-rule:nonzero;"/>
                <path d="M328.869,304.922L323.359,304.922L323.359,295.641L328.869,295.641L328.869,297.654L325.865,297.654L325.865,299.114L328.646,299.114L328.646,301.126L325.865,301.126L325.865,302.878L328.869,302.878L328.869,304.922Z" style="fill:white;fill-rule:nonzero;"/>
                <path d="M338.854,304.922L335.954,304.922L334.143,302.022L332.354,304.922L329.516,304.922L332.594,300.174L329.699,295.641L332.48,295.641L334.156,298.51L335.767,295.641L338.63,295.641L335.691,300.37L338.854,304.922Z" style="fill:white;fill-rule:nonzero;"/>
            </g>
        </g>
        <path d="M344.75,281C346.956,281 348.75,282.794 348.75,285L348.75,315C348.75,317.206 346.956,319 344.75,319L294.75,319C292.544,319 290.75,317.206 290.75,315L290.75,285C290.75,282.794 292.544,281 294.75,281L344.75,281M344.75,280L294.75,280C292,280 289.75,282.25 289.75,285L289.75,315C289.75,317.75 292,320 294.75,320L344.75,320C347.5,320 349.75,317.75 349.75,315L349.75,285C349.75,282.25 347.5,280 344.75,280Z" style="fill:rgb(155,206,224);fill-rule:nonzero;"/>
    </g>
</svg>
