<svg xmlns="http://www.w3.org/2000/svg" xmlns:xlink="http://www.w3.org/1999/xlink" version="1.1" id="Layer_1" x="0px" y="0px" width="800px" height="600px" viewBox="0 0 800 600" enable-background="new 0 0 800 600" xml:space="preserve">
<rect fill="#EFCA11" width="800" height="600"/>
<g>
	<g>
		<g>
			<g>
				<path fill="#5EC1EC" d="M349.75,315c0,2.75-2.25,5-5,5h-50c-2.75,0-5-2.25-5-5v-30c0-2.75,2.25-5,5-5h50c2.75,0,5,2.25,5,5V315z      "/>
				<path fill="#5BBBE6" d="M348.281,281.469c0.906,0.906,1.469,2.156,1.469,3.531v15v15c0,1.375-0.562,2.625-1.469,3.531      c-0.907,0.906-2.156,1.469-3.531,1.469h-25h-25c-1.375,0-2.625-0.562-3.531-1.469L348.281,281.469z"/>
				<g>
					<path fill="#FFFFFF" d="M307.305,304.922l-0.457-1.74h-3.015l-0.47,1.74h-2.755l3.028-9.318h3.345l3.065,9.318H307.305z        M306.328,301.125l-0.4-1.523c-0.094-0.338-0.206-0.775-0.34-1.313c-0.133-0.538-0.221-0.923-0.264-1.155       c-0.037,0.216-0.113,0.571-0.225,1.066c-0.112,0.495-0.361,1.471-0.746,2.926L306.328,301.125L306.328,301.125z"/>
					<path fill="#FFFFFF" d="M315.094,304.922l-1.898-6.685h-0.057c0.089,1.138,0.133,2.022,0.133,2.654v4.03h-2.221v-9.281h3.338       l1.937,6.59h0.051l1.897-6.59h3.346v9.281h-2.305v-4.069c0-0.211,0.004-0.445,0.01-0.704c0.006-0.259,0.035-0.891,0.086-1.898       h-0.057l-1.873,6.672H315.094z"/>
					<path fill="#FFFFFF" d="M328.869,304.922h-5.51v-9.281h5.51v2.013h-3.004v1.46h2.781v2.012h-2.781v1.752h3.004V304.922z"/>
					<path fill="#FFFFFF" d="M338.854,304.922h-2.9l-1.811-2.9l-1.789,2.9h-2.838l3.078-4.748l-2.895-4.533h2.781l1.676,2.869       l1.611-2.869h2.863l-2.939,4.729L338.854,304.922z"/>
				</g>
				<g>
					<path fill="#FFFFFF" d="M307.305,304.922l-0.457-1.74h-3.015l-0.47,1.74h-2.755l3.028-9.318h3.345l3.065,9.318H307.305z        M306.328,301.125l-0.4-1.523c-0.094-0.338-0.206-0.775-0.34-1.313c-0.133-0.538-0.221-0.923-0.264-1.155       c-0.037,0.216-0.113,0.571-0.225,1.066c-0.112,0.495-0.361,1.471-0.746,2.926L306.328,301.125L306.328,301.125z"/>
					<path fill="#FFFFFF" d="M315.094,304.922l-1.898-6.685h-0.057c0.089,1.138,0.133,2.022,0.133,2.654v4.03h-2.221v-9.281h3.338       l1.937,6.59h0.051l1.897-6.59h3.346v9.281h-2.305v-4.069c0-0.211,0.004-0.445,0.01-0.704c0.006-0.259,0.035-0.891,0.086-1.898       h-0.057l-1.873,6.672H315.094z"/>
					<path fill="#FFFFFF" d="M328.869,304.922h-5.51v-9.281h5.51v2.013h-3.004v1.46h2.781v2.012h-2.781v1.752h3.004V304.922z"/>
					<path fill="#FFFFFF" d="M338.854,304.922h-2.9l-1.811-2.9l-1.789,2.9h-2.838l3.078-4.748l-2.895-4.533h2.781l1.676,2.869       l1.611-2.869h2.863l-2.939,4.729L338.854,304.922z"/>
				</g>
				<path fill="#56B1D9" d="M319.75,280"/>
			</g>
			<g>
				<path fill="#9BCEE0" d="M344.75,281c2.206,0,4,1.794,4,4v30c0,2.206-1.794,4-4,4h-50c-2.206,0-4-1.794-4-4v-30      c0-2.206,1.794-4,4-4H344.75 M344.75,280h-50c-2.75,0-5,2.25-5,5v30c0,2.75,2.25,5,5,5h50c2.75,0,5-2.25,5-5v-30      C349.75,282.25,347.5,280,344.75,280L344.75,280z"/>
			</g>
		</g>
		<g>
			<path fill="#5565AF" d="M269.75,315c0,2.75-2.25,5-5,5h-50c-2.75,0-5-2.25-5-5v-30c0-2.75,2.25-5,5-5h50c2.75,0,5,2.25,5,5V315z"/>
			<path opacity="0.04" fill="#FFFFFF" enable-background="new    " d="M268.281,281.469c0.906,0.906,1.469,2.156,1.469,3.531v15v15     c0,1.375-0.562,2.625-1.469,3.531c-0.907,0.906-2.156,1.469-3.531,1.469h-25h-25c-1.375,0-2.625-0.562-3.531-1.469     L268.281,281.469z"/>
			<path fill="#56B1D9" d="M239.75,280"/>
			<g>
				<path fill="#EA564B" d="M239.75,293.4c-1.833-2.08-4.51-3.4-7.5-3.4c-5.522,0-10,4.477-10,10c0,5.521,4.478,10,10,10      c2.99,0,5.667-1.32,7.5-3.401c-1.552-1.762-2.5-4.065-2.5-6.599S238.198,295.162,239.75,293.4z"/>
				<path fill="#EA564B" d="M239.75,293.4c-1.552,1.762-2.5,4.067-2.5,6.6s0.948,4.837,2.5,6.599c1.552-1.762,2.5-4.065,2.5-6.599      S241.302,295.162,239.75,293.4z"/>
			</g>
			<path fill="#E9D419" d="M247.25,290c-2.99,0-5.667,1.32-7.5,3.4c-0.433,0.492-0.812,1.03-1.144,1.6h2.288     c0.364,0.625,0.647,1.299,0.871,2h-4.044c-0.203,0.643-0.35,1.309-0.419,2h4.879c0.034,0.33,0.068,0.66,0.068,1     c0,0.338-0.02,0.671-0.053,1h-4.895c0.069,0.691,0.216,1.357,0.419,2h4.056c-0.223,0.704-0.522,1.372-0.886,2h-2.285     c0.331,0.568,0.711,1.107,1.144,1.599c1.833,2.081,4.51,3.401,7.5,3.401c5.522,0,10-4.479,10-10     C257.25,294.477,252.772,290,247.25,290z"/>
			<g>
				<path fill="#7684B7" d="M264.75,281c2.206,0,4,1.794,4,4v30c0,2.206-1.794,4-4,4h-50c-2.206,0-4-1.794-4-4v-30      c0-2.206,1.794-4,4-4H264.75 M264.75,280h-50c-2.75,0-5,2.25-5,5v30c0,2.75,2.25,5,5,5h50c2.75,0,5-2.25,5-5v-30      C269.75,282.25,267.5,280,264.75,280L264.75,280z"/>
			</g>
		</g>
		<g>
			<path fill="#F3F4F4" d="M429.75,315c0,2.75-2.25,5-5,5h-50c-2.75,0-5-2.25-5-5v-30c0-2.75,2.25-5,5-5h50c2.75,0,5,2.25,5,5V315z"/>
			<g>
				<path fill="#FFFFFF" d="M399.75,280"/>
				<g>
					<path fill="#5565AF" d="M386.75,310h-8v-15c0-2.762,3.238-5,6-5h6v15C390.75,307.762,389.512,310,386.75,310z"/>
					<path fill="#EA564B" d="M400.75,310h-8v-15c0-2.762,3.238-5,6-5h6v15C404.75,307.762,403.512,310,400.75,310z"/>
					<path fill="#99CD76" d="M414.75,310h-8v-15c0-2.762,3.238-5,6-5h6v15C418.75,307.762,417.512,310,414.75,310z"/>
				</g>
				<path opacity="0.08" fill="#FFFFFF" enable-background="new    " d="M428.281,281.469c0.906,0.906,1.469,2.156,1.469,3.531v15      v15c0,1.375-0.562,2.625-1.469,3.531c-0.907,0.906-2.156,1.469-3.531,1.469h-25h-25c-1.375,0-2.625-0.562-3.531-1.469      L428.281,281.469z"/>
				<g>
					<path fill="#F8F8F9" d="M424.75,281c2.206,0,4,1.794,4,4v30c0,2.206-1.794,4-4,4h-50c-2.206,0-4-1.794-4-4v-30       c0-2.206,1.794-4,4-4H424.75 M424.75,280h-50c-2.75,0-5,2.25-5,5v30c0,2.75,2.25,5,5,5h50c2.75,0,5-2.25,5-5v-30       C429.75,282.25,427.5,280,424.75,280L424.75,280z"/>
				</g>
			</g>
		</g>
		<g>
			<path fill="#F3F4F4" d="M589.75,315c0,2.75-2.25,5-5,5h-50c-2.75,0-5-2.25-5-5v-30c0-2.75,2.25-5,5-5h50c2.75,0,5,2.25,5,5V315z"/>
			<g>
				<g>
					<circle fill="#009FDA" cx="556.584" cy="300" r="10"/>
					<path fill="#009FDA" d="M555.75,290c5,0,9.999,4.478,9.999,10c0,5.521-4.999,10-9.999,10V290z"/>
					<path fill="#009FDA" d="M555.75,310v-20h7.167c5,0,9.999,4.478,9.999,10c0,5.521-4.999,10-9.999,10H555.75z"/>
					<circle fill="#F3F4F4" cx="556.584" cy="300" r="9.438"/>
					<g>
						<path fill="#009FDA" d="M561.188,300c0-2.727-2.438-5.008-4.438-5.609v11.218C558.75,305.008,561.188,302.729,561.188,300z"/>
					</g>
					<g>
						<path fill="#009FDA" d="M549.312,300c0,2.727,2.438,5.008,4.438,5.609V294.39C551.75,294.992,549.312,297.272,549.312,300z"/>
					</g>
				</g>
				<path opacity="0.08" fill="#FFFFFF" enable-background="new    " d="M588.281,281.469c0.906,0.906,1.469,2.156,1.469,3.531v15      v15c0,1.375-0.562,2.625-1.469,3.531c-0.907,0.906-2.156,1.469-3.531,1.469h-25h-25c-1.375,0-2.625-0.562-3.531-1.469      L588.281,281.469z"/>
				<g>
					<path fill="#F8F8F9" d="M584.75,281c2.206,0,4,1.794,4,4v30c0,2.206-1.794,4-4,4h-50c-2.206,0-4-1.794-4-4v-30       c0-2.206,1.794-4,4-4H584.75 M584.75,280h-50c-2.75,0-5,2.25-5,5v30c0,2.75,2.25,5,5,5h50c2.75,0,5-2.25,5-5v-30       C589.75,282.25,587.5,280,584.75,280L584.75,280z"/>
				</g>
			</g>
		</g>
		<g>
			<path fill="#FFF9F0" d="M509.75,315c0,2.75-2.25,5-5,5h-50c-2.75,0-5-2.25-5-5v-30c0-2.75,2.25-5,5-5h50c2.75,0,5,2.25,5,5V315z"/>
			<g>
				<path fill="#414042" d="M464.885,299.943c0,1.002-0.285,1.769-0.854,2.302c-0.571,0.532-1.395,0.799-2.472,0.799h-1.724v-6.085      h1.91c0.994,0,1.765,0.263,2.313,0.787C464.61,298.27,464.885,299.003,464.885,299.943z M463.545,299.977      c0-1.307-0.578-1.96-1.73-1.96h-0.688v3.961h0.554C462.924,301.979,463.545,301.311,463.545,299.977z"/>
				<path fill="#414042" d="M465.976,303.044v-6.085h1.29v6.085H465.976z"/>
				<path fill="#414042" d="M472.391,301.354c0,0.551-0.197,0.982-0.594,1.299c-0.396,0.316-0.945,0.476-1.65,0.476      c-0.648,0-1.224-0.123-1.724-0.366v-1.199c0.411,0.185,0.759,0.312,1.043,0.389c0.284,0.074,0.545,0.111,0.781,0.111      c0.282,0,0.5-0.055,0.651-0.162c0.148-0.107,0.227-0.27,0.227-0.482c0-0.119-0.033-0.225-0.101-0.318      c-0.065-0.094-0.164-0.184-0.294-0.269c-0.129-0.085-0.392-0.224-0.788-0.412c-0.371-0.175-0.649-0.344-0.837-0.504      c-0.187-0.16-0.334-0.347-0.445-0.562s-0.166-0.465-0.166-0.75c0-0.538,0.182-0.961,0.547-1.269      c0.366-0.309,0.869-0.462,1.514-0.462c0.316,0,0.618,0.037,0.905,0.112c0.287,0.074,0.588,0.181,0.901,0.316l-0.416,1.003      c-0.325-0.133-0.595-0.228-0.807-0.279c-0.213-0.052-0.422-0.079-0.626-0.079c-0.245,0-0.433,0.056-0.562,0.171      c-0.131,0.114-0.196,0.262-0.196,0.445c0,0.114,0.026,0.212,0.079,0.298c0.053,0.085,0.137,0.166,0.252,0.245      s0.389,0.221,0.818,0.427c0.568,0.272,0.958,0.545,1.17,0.818C472.285,300.622,472.391,300.957,472.391,301.354z"/>
				<path fill="#414042" d="M476.078,297.945c-0.486,0-0.861,0.184-1.128,0.547c-0.268,0.365-0.399,0.875-0.399,1.526      c0,1.356,0.509,2.035,1.527,2.035c0.428,0,0.943-0.104,1.553-0.32v1.082c-0.5,0.209-1.058,0.312-1.674,0.312      c-0.885,0-1.562-0.27-2.031-0.807c-0.469-0.536-0.703-1.307-0.703-2.312c0-0.633,0.116-1.187,0.347-1.662      c0.229-0.478,0.561-0.841,0.992-1.095c0.433-0.254,0.938-0.381,1.518-0.381c0.591,0,1.186,0.143,1.781,0.429l-0.416,1.049      c-0.229-0.108-0.456-0.202-0.688-0.283C476.526,297.984,476.3,297.945,476.078,297.945z"/>
				<path fill="#414042" d="M487.959,296.959h1.303l-2.067,6.085h-1.407l-2.064-6.085h1.304l1.145,3.621      c0.063,0.215,0.131,0.462,0.198,0.748c0.066,0.285,0.109,0.48,0.127,0.592c0.03-0.255,0.134-0.699,0.312-1.34L487.959,296.959z"/>
				<path fill="#414042" d="M493.532,303.044h-3.505v-6.085h3.505v1.058h-2.215v1.336h2.062v1.057h-2.062v1.568h2.215V303.044z"/>
				<path fill="#414042" d="M496.092,300.709v2.335h-1.29v-6.085h1.773c0.827,0,1.438,0.15,1.836,0.452      c0.396,0.301,0.595,0.757,0.595,1.371c0,0.357-0.099,0.677-0.295,0.955c-0.197,0.279-0.476,0.498-0.836,0.656      c0.915,1.366,1.511,2.251,1.789,2.65h-1.432l-1.453-2.335L496.092,300.709L496.092,300.709z M496.092,299.66h0.417      c0.407,0,0.709-0.068,0.903-0.203c0.193-0.137,0.291-0.351,0.291-0.642c0-0.289-0.1-0.493-0.298-0.616      c-0.198-0.123-0.505-0.183-0.921-0.183h-0.394L496.092,299.66L496.092,299.66z"/>
				<circle fill="#E6A124" cx="480.816" cy="300.002" r="3.043"/>
			</g>
			<path fill="#E6A124" d="M509.75,307.5v7.5c0,0.688-0.141,1.344-0.395,1.941c-0.255,0.597-0.621,1.137-1.074,1.59     s-0.992,0.819-1.59,1.074c-0.599,0.254-1.254,0.395-1.941,0.395h-22.457h-22.457L509.75,307.5z"/>
			<path opacity="0.08" fill="#FFFFFF" enable-background="new    " d="M508.281,281.469c0.906,0.906,1.469,2.156,1.469,3.531v15v15     c0,1.375-0.562,2.625-1.469,3.531c-0.907,0.906-2.156,1.469-3.531,1.469h-25h-25c-1.375,0-2.625-0.562-3.531-1.469     L508.281,281.469z"/>
			<g>
				<path fill="#F7F5F2" d="M504.75,281c2.206,0,4,1.794,4,4v30c0,2.206-1.794,4-4,4h-50c-2.206,0-4-1.794-4-4v-30      c0-2.206,1.794-4,4-4H504.75 M504.75,280h-50c-2.75,0-5,2.25-5,5v30c0,2.75,2.25,5,5,5h50c2.75,0,5-2.25,5-5v-30      C509.75,282.25,507.5,280,504.75,280L504.75,280z"/>
			</g>
		</g>
		<g>
			<path fill="#F3F4F4" d="M189.75,315c0,2.75-2.25,5-5,5h-50c-2.75,0-5-2.25-5-5v-30c0-2.75,2.25-5,5-5h50c2.75,0,5,2.25,5,5V315z"/>
			<path fill="#5565AF" d="M130.75,290v-5c0-2.75,2.25-5,5-5h48c2.75,0,5,2.25,5,5v5"/>
			<path fill="#E6A124" d="M188.75,310v5c0,2.75-2.25,4-5,4h-48c-2.75,0-5-1.25-5-4v-5"/>
			<g>
				<path fill="#5565AF" d="M147.137,303.379c0.406-1.15,0.691-1.887,0.859-2.211l3.375-6.875h2.469l-5.844,11.422h-2.609      l-0.992-11.422h2.305l0.398,6.875c0.02,0.234,0.031,0.582,0.031,1.039c-0.012,0.537-0.027,0.928-0.047,1.172H147.137z"/>
				<path fill="#5565AF" d="M152.809,305.715l2.438-11.422h2.383l-2.438,11.422H152.809z"/>
				<path fill="#5565AF" d="M164.934,302.34c0,1.09-0.387,1.949-1.156,2.582c-0.771,0.633-1.816,0.949-3.133,0.949      c-1.152,0-2.078-0.234-2.781-0.703v-2.141c1.004,0.562,1.938,0.844,2.797,0.844c0.582,0,1.039-0.109,1.367-0.332      c0.328-0.221,0.492-0.523,0.492-0.91c0-0.223-0.035-0.42-0.105-0.59c-0.07-0.168-0.172-0.326-0.301-0.473      c-0.131-0.146-0.453-0.41-0.969-0.797c-0.719-0.517-1.225-1.025-1.516-1.532c-0.293-0.505-0.438-1.049-0.438-1.633      c0-0.672,0.16-1.271,0.484-1.801c0.322-0.528,0.781-0.939,1.379-1.234c0.596-0.294,1.281-0.441,2.059-0.441      c1.129,0,2.164,0.258,3.102,0.773l-0.852,1.82c-0.812-0.385-1.562-0.578-2.25-0.578c-0.434,0-0.787,0.117-1.062,0.352      c-0.277,0.234-0.414,0.545-0.414,0.93c0,0.318,0.086,0.596,0.258,0.832c0.172,0.237,0.557,0.551,1.156,0.941      c0.629,0.417,1.102,0.877,1.414,1.379C164.777,301.082,164.934,301.668,164.934,302.34z"/>
				<path fill="#5565AF" d="M172.598,302.996h-3.695l-1.344,2.719h-2.5l5.984-11.469h2.914l1.148,11.469h-2.32L172.598,302.996z       M172.48,300.965l-0.203-2.734c-0.053-0.682-0.078-1.341-0.078-1.977v-0.281c-0.23,0.625-0.514,1.287-0.852,1.984l-1.469,3.008      H172.48z"/>
			</g>
			<path fill="#FFFFFF" d="M159.75,280"/>
			<path opacity="0.04" fill="#FFFFFF" enable-background="new    " d="M188.281,281.469c0.906,0.906,1.469,2.156,1.469,3.531v15v15     c0,1.375-0.562,2.625-1.469,3.531c-0.907,0.906-2.156,1.469-3.531,1.469h-25h-25c-1.375,0-2.625-0.562-3.531-1.469     L188.281,281.469z"/>
			<g>
				<path fill="#F8F8F9" d="M184.75,281c2.206,0,4,1.794,4,4v30c0,2.206-1.794,4-4,4h-50c-2.206,0-4-1.794-4-4v-30      c0-2.206,1.794-4,4-4H184.75 M184.75,280h-50c-2.75,0-5,2.25-5,5v30c0,2.75,2.25,5,5,5h50c2.75,0,5-2.25,5-5v-30      C189.75,282.25,187.5,280,184.75,280L184.75,280z"/>
			</g>
		</g>
	</g>
	<g>
		<g>
			<path fill="#CDCDCD" d="M669.75,314.209c0,2.75-2.25,5-5,5h-50c-2.75,0-5-2.25-5-5v-30c0-2.75,2.25-5,5-5h50c2.75,0,5,2.25,5,5     V314.209z"/>
		</g>
		<rect x="611.5" y="285.5" fill="#424143" width="59" height="8"/>
		<rect x="617.5" y="297.5" fill="#FFFFFF" width="36" height="8"/>
		<rect x="620.5" y="300.5" fill="#424143" width="29" height="2"/>
		<g>
			<g>
				<path fill="#DFDEDD" d="M664.75,280.209c2.206,0,4,1.794,4,4v30c0,2.206-1.794,4-4,4h-50c-2.206,0-4-1.794-4-4v-30      c0-2.206,1.794-4,4-4H664.75 M664.75,279.209h-50c-2.75,0-5,2.25-5,5v30c0,2.75,2.25,5,5,5h50c2.75,0,5-2.25,5-5v-30      C669.75,281.459,667.5,279.209,664.75,279.209L664.75,279.209z"/>
			</g>
		</g>
		<rect x="656.5" y="297.5" fill="#FFFFFF" width="8" height="8"/>
		<rect x="657.5" y="300.5" fill="#424143" width="6" height="2"/>
		<circle fill="none" stroke="#E9564B" stroke-width="2" stroke-miterlimit="10" cx="660" cy="301.396" r="7.75"/>
	</g>
</g>
</svg>