<svg id="Layer_1" data-name="Layer 1" xmlns="http://www.w3.org/2000/svg" viewBox="0 0 24.05 23.08"><defs><style>.cls-1{fill:#4d4d4d;}</style></defs><title>check</title><path class="cls-1" d="M57.74,2.13a2.66,2.66,0,0,0-1.18.9c-0.67.71-1.31,1.45-2,2.15-0.13.13-9.44,12.17-9.62,12.23-1.37.45-6.43-7.43-8.71-4.14-0.68,1,.28,2.06.81,2.85,1.55,2.33,3.15,4.63,4.77,6.91,0.57,0.81,1.19,2.31,2.39,2.12a2.69,2.69,0,0,0,1.54-1.4c0.84-1.17,1.72-2.31,2.58-3.46,2.59-3.45,5.15-6.92,7.74-10.37C57.34,8.24,59.16,6.43,60,4.46,60.45,3.36,58.84,1.87,57.74,2.13Z" transform="translate(-36.02 -2.1)"/></svg>