<?xml version="1.0" encoding="UTF-8" standalone="no"?>
<!DOCTYPE svg PUBLIC "-//W3C//DTD SVG 1.1//EN" "http://www.w3.org/Graphics/SVG/1.1/DTD/svg11.dtd">
<svg width="100%" height="100%" viewBox="0 0 60 40" version="1.1" xmlns="http://www.w3.org/2000/svg" xmlns:xlink="http://www.w3.org/1999/xlink" xml:space="preserve" xmlns:serif="http://www.serif.com/" style="fill-rule:evenodd;clip-rule:evenodd;stroke-linecap:round;stroke-linejoin:round;stroke-miterlimit:1.5;">
    <g transform="matrix(0.98765,0,0,1,-602.222,-279.209)">
        <path d="M669.75,314.209C669.75,316.959 667.5,319.209 664.75,319.209L614.75,319.209C612,319.209 609.75,316.959 609.75,314.209L609.75,284.209C609.75,281.459 612,279.209 614.75,279.209L664.75,279.209C667.5,279.209 669.75,281.459 669.75,284.209L669.75,314.209Z" style="fill:rgb(205,205,205);"/>
        <g transform="matrix(0.910607,0,0,0.899361,604.943,257.867)">
            <path d="M20.422,31.16C20.422,29.932 19.426,28.936 18.198,28.936L13.751,28.936C12.523,28.936 11.527,29.932 11.527,31.16L11.527,35.607C11.527,36.835 12.523,37.831 13.751,37.831L18.198,37.831C19.426,37.831 20.422,36.835 20.422,35.607L20.422,31.16Z" style="fill:white;"/>
        </g>
        <g transform="matrix(0.55566,0,0,1,611.81,279.595)">
            <path d="M5.59,20.715C10.998,20.715 11.297,20.715 16.705,20.715" style="fill:none;stroke:black;stroke-width:2.48px;"/>
        </g>
        <g transform="matrix(0.55566,0,0,1,623.325,279.592)">
            <path d="M5.59,20.715C10.998,20.715 11.297,20.715 16.705,20.715" style="fill:none;stroke:black;stroke-width:2.48px;"/>
        </g>
        <g transform="matrix(0.55566,0,0,1,635.082,279.606)">
            <path d="M5.59,20.715C10.998,20.715 11.297,20.715 16.705,20.715" style="fill:none;stroke:black;stroke-width:2.48px;"/>
        </g>
        <g transform="matrix(0.55566,0,0,1,646.543,279.416)">
            <path d="M5.59,20.715C10.998,20.715 11.297,20.715 16.705,20.715" style="fill:none;stroke:black;stroke-width:2.48px;"/>
        </g>
        <g transform="matrix(1.59969,0,0,1,606.179,289.599)">
            <path d="M5.59,20.715C10.998,20.715 11.297,20.715 16.705,20.715" style="fill:none;stroke:white;stroke-width:1.51px;"/>
        </g>
        <path d="M664.75,280.209C666.956,280.209 668.75,282.003 668.75,284.209L668.75,314.209C668.75,316.415 666.956,318.209 664.75,318.209L614.75,318.209C612.544,318.209 610.75,316.415 610.75,314.209L610.75,284.209C610.75,282.003 612.544,280.209 614.75,280.209L664.75,280.209M664.75,279.209L614.75,279.209C612,279.209 609.75,281.459 609.75,284.209L609.75,314.209C609.75,316.959 612,319.209 614.75,319.209L664.75,319.209C667.5,319.209 669.75,316.959 669.75,314.209L669.75,284.209C669.75,281.459 667.5,279.209 664.75,279.209Z" style="fill:rgb(223,222,221);"/>
    </g>
</svg>
