<?xml version="1.0" encoding="UTF-8" standalone="no"?>
<!DOCTYPE svg PUBLIC "-//W3C//DTD SVG 1.1//EN" "http://www.w3.org/Graphics/SVG/1.1/DTD/svg11.dtd">
<svg width="100%" height="100%" viewBox="0 0 60 40" version="1.1" xmlns="http://www.w3.org/2000/svg" xmlns:xlink="http://www.w3.org/1999/xlink" xml:space="preserve" style="fill-rule:evenodd;clip-rule:evenodd;stroke-linejoin:round;stroke-miterlimit:1.41421;">
    <g transform="matrix(1,0,0,1,-449.75,-280)">
        <path d="M509.75,315C509.75,317.75 507.5,320 504.75,320L454.75,320C452,320 449.75,317.75 449.75,315L449.75,285C449.75,282.25 452,280 454.75,280L504.75,280C507.5,280 509.75,282.25 509.75,285L509.75,315Z" style="fill:rgb(255,249,240);fill-rule:nonzero;"/>
        <g>
            <path d="M464.885,299.943C464.885,300.945 464.6,301.712 464.031,302.245C463.46,302.777 462.636,303.044 461.559,303.044L459.835,303.044L459.835,296.959L461.745,296.959C462.739,296.959 463.51,297.222 464.058,297.746C464.61,298.27 464.885,299.003 464.885,299.943ZM463.545,299.977C463.545,298.67 462.967,298.017 461.815,298.017L461.127,298.017L461.127,301.978L461.681,301.978C462.924,301.979 463.545,301.311 463.545,299.977Z" style="fill:rgb(65,64,66);fill-rule:nonzero;"/>
            <rect x="465.976" y="296.959" width="1.29" height="6.085" style="fill:rgb(65,64,66);fill-rule:nonzero;"/>
            <path d="M472.391,301.354C472.391,301.905 472.194,302.336 471.797,302.653C471.401,302.969 470.852,303.129 470.147,303.129C469.499,303.129 468.923,303.006 468.423,302.763L468.423,301.564C468.834,301.749 469.182,301.876 469.466,301.953C469.75,302.027 470.011,302.064 470.247,302.064C470.529,302.064 470.747,302.009 470.898,301.902C471.046,301.795 471.125,301.632 471.125,301.42C471.125,301.301 471.092,301.195 471.024,301.102C470.959,301.008 470.86,300.918 470.73,300.833C470.601,300.748 470.338,300.609 469.942,300.421C469.571,300.246 469.293,300.077 469.105,299.917C468.918,299.757 468.771,299.57 468.66,299.355C468.549,299.14 468.494,298.89 468.494,298.605C468.494,298.067 468.676,297.644 469.041,297.336C469.407,297.027 469.91,296.874 470.555,296.874C470.871,296.874 471.173,296.911 471.46,296.986C471.747,297.06 472.048,297.167 472.361,297.302L471.945,298.305C471.62,298.172 471.35,298.077 471.138,298.026C470.925,297.974 470.716,297.947 470.512,297.947C470.267,297.947 470.079,298.003 469.95,298.118C469.819,298.232 469.754,298.38 469.754,298.563C469.754,298.677 469.78,298.775 469.833,298.861C469.886,298.946 469.97,299.027 470.085,299.106C470.2,299.185 470.474,299.327 470.903,299.533C471.471,299.805 471.861,300.078 472.073,300.351C472.285,300.622 472.391,300.957 472.391,301.354Z" style="fill:rgb(65,64,66);fill-rule:nonzero;"/>
            <path d="M476.078,297.945C475.592,297.945 475.217,298.129 474.95,298.492C474.682,298.857 474.551,299.367 474.551,300.018C474.551,301.374 475.06,302.053 476.078,302.053C476.506,302.053 477.021,301.949 477.631,301.733L477.631,302.815C477.131,303.024 476.573,303.127 475.957,303.127C475.072,303.127 474.395,302.857 473.926,302.32C473.457,301.784 473.223,301.013 473.223,300.008C473.223,299.375 473.339,298.821 473.57,298.346C473.799,297.868 474.131,297.505 474.562,297.251C474.995,296.997 475.5,296.87 476.08,296.87C476.671,296.87 477.266,297.013 477.861,297.299L477.445,298.348C477.216,298.24 476.989,298.146 476.757,298.065C476.526,297.984 476.3,297.945 476.078,297.945Z" style="fill:rgb(65,64,66);fill-rule:nonzero;"/>
            <path d="M487.959,296.959L489.262,296.959L487.195,303.044L485.788,303.044L483.724,296.959L485.028,296.959L486.173,300.58C486.236,300.795 486.304,301.042 486.371,301.328C486.437,301.613 486.48,301.808 486.498,301.92C486.528,301.665 486.632,301.221 486.81,300.58L487.959,296.959Z" style="fill:rgb(65,64,66);fill-rule:nonzero;"/>
            <path d="M493.532,303.044L490.027,303.044L490.027,296.959L493.532,296.959L493.532,298.017L491.317,298.017L491.317,299.353L493.379,299.353L493.379,300.41L491.317,300.41L491.317,301.978L493.532,301.978L493.532,303.044Z" style="fill:rgb(65,64,66);fill-rule:nonzero;"/>
            <path d="M496.092,300.709L496.092,303.044L494.802,303.044L494.802,296.959L496.575,296.959C497.402,296.959 498.013,297.109 498.411,297.411C498.807,297.712 499.006,298.168 499.006,298.782C499.006,299.139 498.907,299.459 498.711,299.737C498.514,300.016 498.235,300.235 497.875,300.393C498.79,301.759 499.386,302.644 499.664,303.043L498.232,303.043L496.779,300.708L496.092,300.709ZM496.092,299.66L496.509,299.66C496.916,299.66 497.218,299.592 497.412,299.457C497.605,299.32 497.703,299.106 497.703,298.815C497.703,298.526 497.603,298.322 497.405,298.199C497.207,298.076 496.9,298.016 496.484,298.016L496.09,298.016L496.092,299.66Z" style="fill:rgb(65,64,66);fill-rule:nonzero;"/>
            <circle cx="480.816" cy="300.002" r="3.043" style="fill:rgb(230,161,36);"/>
        </g>
        <path d="M509.75,307.5L509.75,315C509.75,315.688 509.609,316.344 509.355,316.941C509.1,317.538 508.734,318.078 508.281,318.531C507.828,318.984 507.289,319.35 506.691,319.605C506.092,319.859 505.437,320 504.75,320L482.293,320L459.836,320L509.75,307.5Z" style="fill:rgb(230,161,36);fill-rule:nonzero;"/>
        <path d="M508.281,281.469C509.187,282.375 509.75,283.625 509.75,285L509.75,315C509.75,316.375 509.188,317.625 508.281,318.531C507.374,319.437 506.125,320 504.75,320L479.75,320L454.75,320C453.375,320 452.125,319.438 451.219,318.531L508.281,281.469Z" style="fill:white;fill-opacity:0.08;fill-rule:nonzero;"/>
        <path d="M504.75,281C506.956,281 508.75,282.794 508.75,285L508.75,315C508.75,317.206 506.956,319 504.75,319L454.75,319C452.544,319 450.75,317.206 450.75,315L450.75,285C450.75,282.794 452.544,281 454.75,281L504.75,281M504.75,280L454.75,280C452,280 449.75,282.25 449.75,285L449.75,315C449.75,317.75 452,320 454.75,320L504.75,320C507.5,320 509.75,317.75 509.75,315L509.75,285C509.75,282.25 507.5,280 504.75,280Z" style="fill:rgb(247,245,242);fill-rule:nonzero;"/>
    </g>
</svg>
