<?xml version="1.0" encoding="UTF-8"?>
<!DOCTYPE svg PUBLIC "-//W3C//DTD SVG 1.1//EN" "http://www.w3.org/Graphics/SVG/1.1/DTD/svg11.dtd">
<!-- Creator: CorelDRAW -->
<svg xmlns="http://www.w3.org/2000/svg" xml:space="preserve" width="297mm" height="420mm" style="shape-rendering:geometricPrecision; text-rendering:geometricPrecision; image-rendering:optimizeQuality; fill-rule:evenodd; clip-rule:evenodd"
viewBox="0 0 297 420">
 <defs>
  <style type="text/css">
   <![CDATA[
    .str0 {stroke:#0A0B0C;stroke-width:0.05}
    .fil0 {fill:#1F1A17}
   ]]>
  </style>
 </defs>
 <g id="Layer_x0020_1">
  <metadata id="CorelCorpID_0Corel-Layer"/>
  <path class="fil0 str0" d="M142.02 302.948l0.803 -35.598 -47.7763 7.821 5.6373 -18.8775 -48.0451 -38.8318 13.4215 -7.0142 -8.8575 -30.4724 26.3037 6.4725 7.784 -15.3704 22.4117 23.3037c1.4344,1.5372 5.8979,1.4201 5.0658,-2.3701 -3.2202,-17.529 -6.2736,-34.147 -9.4954,-51.6776l20.1305 10.5164 18.5293 -33.7094 18.5277 33.7094 20.1321 -10.5164c-3.2218,17.5306 -6.2752,34.1486 -9.4953,51.6776 -0.8322,3.7902 3.6297,3.9073 5.0641,2.3701l22.4133 -23.3037 7.7841 15.3704 26.3037 -6.4725 -8.8575 30.4724 13.4214 7.0142 -48.0451 38.8318 5.6357 18.8775 -47.7747 -7.821 0.8031 35.598 -11.8251 0zm-102.645 -127.435l-21.6734 -10.1537 2.014 -4.34 17.736 2.0366c1.6514,0.1936 2.8818,0.3449 3.6929,0.4653 -0.6735,-0.6182 -1.6529,-1.5454 -2.9384,-2.7898l-12.6573 -12.2781 1.7987 -3.8796 21.6734 10.1553 -1.2903 2.78 -18.1424 -8.501 15.2055 14.8271 -1.2061 2.601 -21.3739 -2.3456 18.45 8.6441 -1.2887 2.7784zm11.3815 -24.893l-12.8014 -22.2967 2.1436 -2.658 24.7462 7.4778 -2.2698 2.8174 -7.3875 -2.4009 -6.293 7.8063 3.9795 6.6287 -2.1176 2.6254zm-3.2898 -11.5965l5.1063 -6.3358 -6.7204 -2.2335c-2.0383,-0.6783 -3.68,-1.2818 -4.9185,-1.8137 1.0005,1.2102 1.9104,2.5067 2.7361,3.8975l3.7965 6.4855zm19.5638 -9.2394l-15.3739 -18.4074 6.3092 -5.3176c1.4247,-1.2021 2.5888,-2.0301 3.4857,-2.4855 1.2499,-0.6442 2.5127,-0.9582 3.7852,-0.95 1.6497,0.0097 3.2477,0.4441 4.7954,1.3176 1.5478,0.8702 3.0032,2.126 4.3745,3.769 1.1657,1.3973 2.0367,2.7718 2.6115,4.1285 0.5779,1.3533 0.9131,2.5994 0.9924,3.7364 0.0826,1.1371 -0.0081,2.1619 -0.2785,3.0728 -0.2606,0.9142 -0.7318,1.8381 -1.4085,2.7669 -0.6832,0.9321 -1.5769,1.8626 -2.6827,2.7947l-6.6103 5.5746zm0.6071 -4.2164l3.9099 -3.2972c1.2094,-1.0199 2.0658,-1.9309 2.5629,-2.7361 0.4986,-0.8068 0.7771,-1.5844 0.8434,-2.3408 0.0988,-1.0605 -0.1052,-2.2171 -0.5974,-3.4615 -0.497,-1.246 -1.3194,-2.5604 -2.4819,-3.9528 -1.6076,-1.9244 -3.157,-3.1379 -4.6481,-3.6405 -1.4975,-0.5059 -2.8381,-0.5531 -4.0296,-0.1448 -0.8597,0.2945 -2.0124,1.0525 -3.4517,2.266l-3.8516 3.2468 11.7441 14.0609zm17.1759 -10.178l-11.5952 -21.015 15.1213 -8.4212 1.3681 2.479 -12.3545 6.8808 3.5488 6.4351 11.5725 -6.4432 1.3616 2.4644 -11.5725 6.4449 3.9471 7.154 12.8418 -7.1524 1.368 2.4807 -15.607 8.6929zm28.9232 -13.9552l-6.1894 -23.2093 3.055 -0.8247 6.1894 23.2109 -3.055 0.8231zm8.4608 -2.8581l-2.9142 -23.8469 3.2218 -0.3986 14.7555 17.1858 -2.2893 -18.723 3.0129 -0.3725 2.9158 23.8486 -3.2234 0.3969 -14.757 -17.2004 2.2892 18.7392 -3.0113 0.3709zm52.0148 -7.9153l2.9806 1.3452c-1.1042,2.453 -2.6276,4.205 -4.5591,5.2574 -1.9363,1.0508 -4.1284,1.355 -6.5828,0.9207 -2.5402,-0.4506 -4.5105,-1.3322 -5.9174,-2.6515 -1.4085,-1.3224 -2.3572,-3.0418 -2.8413,-5.1533 -0.4809,-2.1211 -0.5278,-4.3074 -0.1295,-6.5684 0.4306,-2.4628 1.2757,-4.5287 2.5353,-6.196 1.258,-1.669 2.8381,-2.8288 4.7355,-3.4746 1.8959,-0.6474 3.8807,-0.7824 5.9595,-0.4148 2.3573,0.4181 4.2337,1.3697 5.6276,2.8613 1.3924,1.4901 2.2148,3.3802 2.4625,5.6787l-3.1926 0.1838c-0.2461,-1.8202 -0.816,-3.211 -1.7194,-4.1838 -0.8985,-0.9727 -2.1338,-1.5941 -3.7156,-1.8739 -1.8068,-0.3204 -3.3901,-0.1529 -4.763,0.501 -1.3697,0.6621 -2.4318,1.6771 -3.1765,3.0614 -0.7512,1.3794 -1.2628,2.85 -1.5364,4.4099 -0.3529,2.0171 -0.3708,3.8211 -0.0551,5.4266 0.3255,1.6023 1.033,2.8873 2.1355,3.8487 1.1041,0.963 2.3702,1.5681 3.8062,1.8219 1.7437,0.3107 3.3076,0.0634 4.6983,-0.7304 1.3875,-0.7987 2.4722,-2.157 3.2477,-4.0699zm3.2833 8.8799l17.1467 -19.1231 3.1813 1.2265 0.5683 25.9552 -3.3675 -1.2981 -0.0097 -7.7983 -9.3351 -3.6014 -5.0464 5.8495 -3.1376 -1.2103zm9.9584 -6.7295l7.5753 2.9215 0.0388 -7.1102c0.0113,-2.1569 0.0745,-3.9137 0.1975,-5.2622 -0.837,1.3306 -1.7825,2.601 -2.8462,3.821l-4.9654 5.6299zm13.1915 16.1593l12.6751 -20.3756 2.7522 1.7275 0.7027 22.6855 9.9487 -15.9983 2.5741 1.617 -12.6718 20.3756 -2.7539 -1.7275 -0.6961 -22.7002 -9.9568 16.0113 -2.5742 -1.6153zm18.5925 12.3725l23.0301 -11.2777 2.49 2.3343 -9.1506 24.2796 -2.6373 -2.4709 2.8996 -7.2338 -7.3146 -6.8548 -6.858 3.5266 -2.4592 -2.3033zm11.7441 -2.4905l5.9336 5.56 2.6875 -6.5782c0.816,-1.996 1.5283,-3.6015 2.1435,-4.8069 -1.2709,0.9191 -2.6211,1.7438 -4.062,2.4742l-6.7026 3.3509zm6.6346 20.8084l20.056 -13.0866 4.4862 6.941c1.0119,1.5665 1.6886,2.8272 2.0302,3.7772 0.4841,1.3257 0.6395,2.6238 0.476,3.8926 -0.2105,1.6445 -0.8338,3.185 -1.8845,4.6197 -1.0507,1.4364 -2.4673,2.7361 -4.2563,3.904 -1.5235,0.9923 -2.9887,1.695 -4.3972,2.1 -1.4085,0.4116 -2.6778,0.5938 -3.8127,0.5336 -1.1317,-0.0553 -2.1338,-0.27 -3.0016,-0.6491 -0.8726,-0.3725 -1.7258,-0.9548 -2.5628,-1.7437 -0.8371,-0.7939 -1.6466,-1.8008 -2.4301,-3.0159l-4.7032 -7.2728zm4.0912 1.1208l2.7798 4.3009c0.8613,1.329 1.6578,2.2968 2.3928,2.8906 0.7351,0.5937 1.4685,0.9678 2.2067,1.1256 1.0362,0.2261 2.2051,0.1643 3.4922,-0.1757 1.2919,-0.3432 2.6907,-1.0036 4.2077,-1.9926 2.0982,-1.3697 3.4841,-2.767 4.1641,-4.1903 0.6832,-1.4315 0.8904,-2.7621 0.633,-4.0016 -0.183,-0.8947 -0.7933,-2.1375 -1.8165,-3.7186l-2.7377 -4.2358 -15.3221 9.9975zm6.9195 16.1284l25.6173 -0.4409 1.2741 3.1737 -18.5066 18.1194 -1.3503 -3.3607 5.6697 -5.3257 -3.7447 -9.3159 -7.6999 0.283 -1.2596 -3.1329zm11.694 2.7295l3.0372 7.5575 5.2034 -4.8198c1.5785,-1.4624 2.8996,-2.614 3.9633,-3.4453 -1.5397,0.2944 -3.1101,0.4669 -4.721,0.5173l-7.4829 0.1903zm-249.398 48.3657l23.8995 -0.8393 0.5634 16.2016 -2.8203 0.1009 -0.4533 -13.0215 -7.4036 0.2602 0.3934 11.2663 -2.8203 0.0976 -0.3918 -11.2646 -10.8569 0.379 -0.1101 -3.1802zm0.6687 20.3611l25.4278 3.1443 0.824 3.32 -20.8363 15.3558 -0.8727 -3.5169 6.3529 -4.4798 -2.4187 -9.7486 -7.6627 -0.7971 -0.8143 -3.2777zm11.2001 4.3383l1.9622 7.9088 5.8187 -4.0471c1.7663,-1.2265 3.2347,-2.183 4.4036,-2.8564 -1.5639,0.0748 -3.1425,0.026 -4.7469,-0.1481l-7.4376 -0.8572zm-3.9859 24.4537l21.6733 -10.1569 3.7917 8.1756c0.7739,1.6625 1.1705,3.0988 1.2029,4.3058 0.0292,1.2167 -0.2833,2.318 -0.9309,3.3135 -0.646,0.9939 -1.4652,1.7275 -2.4641,2.1976 -0.9244,0.4327 -1.9153,0.5889 -2.9676,0.4636 -1.0507,-0.1171 -2.0675,-0.5758 -3.0453,-1.3582 0.2283,1.4998 0.0421,2.8157 -0.5521,3.9577 -0.599,1.1451 -1.5299,2.0121 -2.7911,2.6043 -1.0151,0.4749 -2.061,0.701 -3.1344,0.6783 -1.0718,-0.0228 -1.9913,-0.2408 -2.7571,-0.6523 -0.7723,-0.4116 -1.4927,-1.0427 -2.1776,-1.8821 -0.6832,-0.841 -1.3486,-1.9552 -1.9929,-3.3428l-3.8548 -8.3041zm13.9054 -3.0028l2.1841 4.7108c0.5925,1.2704 1.1009,2.1488 1.5283,2.6303 0.5537,0.6279 1.1721,1.0118 1.8472,1.1468 0.6752,0.1334 1.3924,0.0244 2.1501,-0.3302 0.7188,-0.3367 1.2741,-0.8068 1.6578,-1.4071 0.3886,-0.6067 0.531,-1.2785 0.4371,-2.0089 -0.0971,-0.7418 -0.5083,-1.8935 -1.2385,-3.4616l-2.0156 -4.3497 -6.5505 3.0696zm-10.0069 4.688l2.5126 5.4201c0.4339,0.932 0.7739,1.5713 1.0119,1.9146 0.4307,0.6083 0.884,1.067 1.3681,1.3842 0.4808,0.3189 1.0523,0.4946 1.7128,0.5368 0.6606,0.0358 1.3357,-0.1008 2.027,-0.4261 0.8063,-0.3758 1.4118,-0.9126 1.8181,-1.6088 0.4032,-0.6962 0.5554,-1.4689 0.4534,-2.3213 -0.1053,-0.8491 -0.4793,-1.9699 -1.122,-3.3542l-2.3346 -5.0345 -7.4473 3.4892zm7.1219 21.7209l19.3485 -14.1244 6.2315 8.6181c1.2531,1.7341 2.0302,3.1785 2.3346,4.3335 0.3043,1.1533 0.2121,2.3196 -0.2736,3.5055 -0.4922,1.1825 -1.2726,2.1618 -2.3346,2.9361 -1.3745,1.002 -2.8494,1.4005 -4.4393,1.1923 -1.585,-0.2049 -3.1829,-1.1484 -4.7873,-2.8239 0.17,0.9207 0.2218,1.669 0.1554,2.2546 -0.1408,1.2525 -0.4841,2.5897 -1.0264,4.0146l-2.8203 7.2257 -2.3394 -3.2371 2.1694 -5.5111c0.612,-1.5958 1.0556,-2.8662 1.3162,-3.8016 0.2672,-0.9353 0.3821,-1.6868 0.3497,-2.248 -0.0307,-0.5661 -0.1408,-1.0801 -0.3302,-1.5519 -0.1538,-0.3351 -0.4663,-0.8328 -0.9471,-1.4998l-2.1565 -2.9816 -8.5888 6.2708 -1.8618 -2.5718zm12.667 -5.3176l4.0005 5.5307c0.8467,1.1712 1.6352,2.0073 2.3572,2.4904 0.7237,0.488 1.4749,0.706 2.2553,0.6637 0.7787,-0.0439 1.4813,-0.2944 2.1079,-0.7499 0.9147,-0.6685 1.4279,-1.5469 1.5332,-2.6482 0.1084,-1.0964 -0.3611,-2.3652 -1.4037,-3.808l-4.449 -6.1505 -6.4014 4.6718zm4.6513 27.5883l17.2017 -16.6896 2.197 2.2855 -17.2017 16.6896 -2.197 -2.2855zm24.2557 18.2594c0.5294,1.708 1.1478,3.1297 1.8343,4.2651l-2.0901 1.1696c-0.9714,-1.5502 -1.7194,-3.3851 -2.2439,-5.5014 -2.0011,-0.314 -3.8468,-1.1322 -5.5354,-2.4579 -1.7064,-1.3388 -2.9287,-2.9654 -3.6799,-4.8816 -0.7415,-1.9179 -0.9099,-3.9171 -0.4938,-6.0057 0.4128,-2.087 1.3551,-4.0699 2.8106,-5.9455 1.4538,-1.8658 3.1521,-3.2728 5.1014,-4.213 1.9444,-0.9386 3.9228,-1.2656 5.9433,-0.9728 2.0108,0.2928 3.8807,1.1143 5.6001,2.4644 1.7436,1.368 2.9854,3.0126 3.7366,4.9451 0.7544,1.9227 0.9131,3.9219 0.4841,5.9942 -0.4291,2.0692 -1.3746,4.0391 -2.8333,5.9179 -1.211,1.5551 -2.5337,2.7751 -3.9746,3.6453 -1.436,0.8752 -2.9903,1.4022 -4.6594,1.5763zm-2.9968 -7.5136c1.1252,1.5339 1.8392,3.0679 2.15,4.6051 2.5127,-0.1952 4.8133,-1.6381 6.9083,-4.3318 1.1932,-1.534 1.9767,-3.0761 2.3491,-4.6312 0.3691,-1.5469 0.3028,-3.0337 -0.1991,-4.4505 -0.51,-1.4168 -1.3826,-2.6124 -2.6276,-3.5901 -1.8538,-1.4558 -3.8986,-2.0301 -6.115,-1.7112 -2.2228,0.3139 -4.3178,1.7438 -6.2946,4.2879 -1.9136,2.4595 -2.7798,4.8263 -2.5936,7.0939 0.1959,2.2675 1.2288,4.1463 3.1117,5.6234 0.8937,0.7027 1.8635,1.1923 2.9126,1.477 -0.3821,-1.1241 -0.9277,-2.1326 -1.6271,-3.0224l2.0253 -1.3501zm35.8104 1.451l2.8219 1.4445 -6.2752 12.3724c-1.0863,2.1472 -2.2002,3.7332 -3.327,4.7499 -1.1268,1.0183 -2.5224,1.5974 -4.19,1.7421 -1.6691,0.1497 -3.5261,-0.3042 -5.5806,-1.3566 -1.993,-1.0199 -3.4565,-2.2025 -4.368,-3.5429 -0.9229,-1.3404 -1.3227,-2.8044 -1.1997,-4.3953 0.1214,-1.5876 0.7577,-3.5087 1.9072,-5.7779l6.2735 -12.3692 2.8187 1.4413 -6.2655 12.3545c-0.9439,1.8609 -1.4652,3.32 -1.5688,4.3725 -0.1036,1.059 0.1457,2.0415 0.7383,2.9459 0.5941,0.9077 1.5024,1.6722 2.7118,2.292 2.0755,1.0622 3.7933,1.3468 5.1548,0.8507 1.3584,-0.4929 2.7183,-2.0805 4.0815,-4.7677l6.2671 -12.3562zm1.4684 25.8461l6.1894 -23.2093 16.6999 4.4961 -0.7302 2.7377 -13.6432 -3.673 -1.8975 7.1069 12.7803 3.4404 -0.7253 2.723 -12.7819 -3.4404 -2.1047 7.9008 14.1824 3.8178 -0.7318 2.7409 -17.2374 -4.6409zm34.3889 6.6986l8.7685 -24.1853 3.4063 -0.0602 10.2045 23.8519 -3.6071 0.0634 -2.9158 -7.2273 -9.9989 0.1773 -2.4948 7.32 -3.3627 0.0602zm6.7253 -9.9893l8.1127 -0.1416 -2.6146 -6.6075c-0.7933,-2.004 -1.3907,-3.6567 -1.7809,-4.9532 -0.2801,1.5486 -0.6816,3.0842 -1.211,4.6132l-2.5062 7.0891zm30.955 -17.8885l3.0874 -0.7174 3.1085 13.5307c0.5407,2.3489 0.7026,4.2813 0.4889,5.7876 -0.2137,1.5096 -0.9099,2.8532 -2.0933,4.0407 -1.1835,1.1923 -2.8964,2.0447 -5.1452,2.5652 -2.1775,0.5059 -4.0555,0.545 -5.613,0.109 -1.5607,-0.4327 -2.8057,-1.2964 -3.7285,-2.5929 -0.9245,-1.2948 -1.666,-3.1769 -2.2358,-5.6575l-3.1085 -13.529 3.0825 -0.7158 3.102 13.5111c0.4695,2.035 1.0038,3.4892 1.598,4.3611 0.5974,0.8784 1.4166,1.4705 2.4479,1.7812 1.0377,0.3107 2.2212,0.3124 3.5439,0.0065 2.2699,-0.5286 3.7674,-1.4217 4.4943,-2.6807 0.7254,-1.2525 0.7513,-3.3493 0.0761,-6.2871l-3.1052 -13.5127zm41.3684 -1.477l3.1602 -0.8394c0.6784,2.6027 0.5926,4.9272 -0.2509,6.9703 -0.8484,2.0398 -2.3605,3.66 -4.538,4.8751 -2.2585,1.2558 -4.3421,1.8186 -6.2623,1.682 -1.9217,-0.1367 -3.7366,-0.8735 -5.4349,-2.2107 -1.7016,-1.3436 -3.1085,-3.0142 -4.2158,-5.0199 -1.2062,-2.1894 -1.8425,-4.3269 -1.9088,-6.4204 -0.0664,-2.0935 0.4339,-3.9919 1.504,-5.6934 1.0669,-1.7014 2.5256,-3.063 4.3713,-4.091 2.0933,-1.1663 4.1462,-1.6137 6.1651,-1.3355 2.0172,0.2781 3.8402,1.2265 5.4705,2.8564l-2.3653 2.1619c-1.3324,-1.2591 -2.6454,-1.9797 -3.9584,-2.1651 -1.3066,-0.1871 -2.6552,0.1106 -4.0588,0.8946 -1.6077,0.8931 -2.7313,2.0252 -3.3886,3.3998 -0.6508,1.381 -0.8386,2.8418 -0.5504,4.3887 0.2801,1.547 0.803,3.0142 1.5655,4.3985 0.9909,1.791 2.1047,3.2029 3.3594,4.2521 1.2547,1.0395 2.6098,1.5909 4.0685,1.6413 1.4604,0.0488 2.8236,-0.2814 4.0993,-0.9906 1.5494,-0.8638 2.6114,-2.0415 3.1943,-3.538 0.578,-1.4998 0.5699,-3.2403 -0.0259,-5.2167zm10.8941 2.5327l-8.3329 -24.3398 2.6114 -2.2009 22.8698 12.0829 -2.7636 2.3326 -6.7932 -3.7739 -7.6627 6.4579 2.647 7.2696 -2.5758 2.1716zm-1.0264 -12.0162l6.2121 -5.2395 -6.17 -3.4794c-1.8716,-1.0574 -3.3691,-1.9651 -4.4862,-2.7247 0.7544,1.3794 1.402,2.8288 1.9492,4.3513l2.4949 7.0923zm22.1995 -7.4583l-18.5859 -15.1199 2.0431 -2.5359 22.4975 2.0658 -14.5919 -11.8746 1.9104 -2.3685 18.5843 15.1215 -2.0415 2.5344 -22.512 -2.074 14.6065 11.8828 -1.9105 2.3684zm14.7361 -20.4586l-16.8003 -19.4305 1.598 -3.0224 25.7111 2.5978 -1.6934 3.1997 -7.7048 -0.9419 -4.6951 8.8719 5.163 5.7421 -1.5785 2.9833zm-5.4334 -10.7523l3.8095 -7.198 -7.0215 -0.9044c-2.1274,-0.2749 -3.8548,-0.5531 -5.1743,-0.8377 1.2142,0.9955 2.3556,2.0951 3.4306,3.3005l4.9557 5.6396zm17.6794 -15.9478l-22.9896 -6.6238 2.2714 -7.9544c0.5116,-1.7959 1.0151,-3.1346 1.5057,-4.0179 0.6783,-1.2362 1.551,-2.2074 2.6082,-2.9133 1.3761,-0.9207 2.9433,-1.4559 4.7096,-1.6023 1.7679,-0.1464 3.6735,0.0764 5.7247,0.6685 1.7453,0.5011 3.2331,1.1517 4.4636,1.9537 1.2336,0.797 2.2018,1.6413 2.9012,2.5408 0.701,0.8947 1.1964,1.7942 1.4814,2.7019 0.293,0.9061 0.4144,1.9358 0.3707,3.0874 -0.0469,1.155 -0.272,2.4303 -0.6686,3.8227l-2.3783 8.3367zm-1.8424 -3.8373l1.4069 -4.9321c0.4355,-1.5209 0.6379,-2.7604 0.6022,-3.7072 -0.0372,-0.9483 -0.2379,-1.7502 -0.6022,-2.4139 -0.5116,-0.9337 -1.3244,-1.7796 -2.4236,-2.5344 -1.1058,-0.7531 -2.5192,-1.381 -4.258,-1.882 -2.4042,-0.693 -4.3632,-0.8264 -5.8801,-0.4067 -1.5235,0.4213 -2.6584,1.1338 -3.421,2.1439 -0.5488,0.7272 -1.0847,2.0057 -1.5995,3.8178l-1.3859 4.8524 17.5612 5.0622zm7.8003 -20.1414l-23.022 -11.2907 0.2962 -3.4095 24.6766 -7.7039 -0.314 3.6112 -7.4587 2.1586 -0.871 10.0089 6.9859 3.2598 -0.293 3.3656zm-9.1829 -7.7657l0.7058 -8.1204 -6.8127 1.9228c-2.0674,0.5823 -3.7641,1.0069 -5.09,1.2606 1.5056,0.4409 2.9821,1.0037 4.4425,1.6934l6.7544 3.2436zm-157.273 93.9905l5.5839 -3.8113 3.6735 1.1045 -5.6454 3.5543 -3.612 -0.8475zm-92.619 -134.607c3.1684,0 5.7377,2.5815 5.7377,5.7649 0,3.185 -2.5709,5.7665 -5.7393,5.7665 -3.1684,0 -5.7377,-2.5815 -5.7377,-5.7649 0,-3.1834 2.571,-5.7665 5.7393,-5.7665zm246.193 0c3.1683,0 5.7393,2.5831 5.7393,5.7665 0,3.1834 -2.5693,5.7649 -5.7377,5.7649 -3.17,0 -5.7393,-2.5815 -5.7393,-5.7665 0,-3.1834 2.5693,-5.7649 5.7377,-5.7649z"/>
 </g>
</svg>
