<?xml version="1.0" encoding="UTF-8" standalone="no"?>
<!DOCTYPE svg PUBLIC "-//W3C//DTD SVG 1.1//EN" "http://www.w3.org/Graphics/SVG/1.1/DTD/svg11.dtd">
<svg width="100%" height="100%" viewBox="0 0 60 40" version="1.1" xmlns="http://www.w3.org/2000/svg" xmlns:xlink="http://www.w3.org/1999/xlink" xml:space="preserve" style="fill-rule:evenodd;clip-rule:evenodd;stroke-linejoin:round;stroke-miterlimit:1.41421;">
    <g transform="matrix(1,0,0,1,-209.75,-280)">
        <path d="M269.75,315C269.75,317.75 267.5,320 264.75,320L214.75,320C212,320 209.75,317.75 209.75,315L209.75,285C209.75,282.25 212,280 214.75,280L264.75,280C267.5,280 269.75,282.25 269.75,285L269.75,315Z" style="fill:rgb(85,101,175);fill-rule:nonzero;"/>
        <path d="M268.281,281.469C269.187,282.375 269.75,283.625 269.75,285L269.75,315C269.75,316.375 269.188,317.625 268.281,318.531C267.374,319.437 266.125,320 264.75,320L239.75,320L214.75,320C213.375,320 212.125,319.438 211.219,318.531L268.281,281.469Z" style="fill:white;fill-opacity:0.04;fill-rule:nonzero;"/>
        <g>
            <path d="M239.75,293.4C237.917,291.32 235.24,290 232.25,290C226.728,290 222.25,294.477 222.25,300C222.25,305.521 226.728,310 232.25,310C235.24,310 237.917,308.68 239.75,306.599C238.198,304.837 237.25,302.534 237.25,300C237.25,297.466 238.198,295.162 239.75,293.4Z" style="fill:rgb(234,86,75);fill-rule:nonzero;"/>
            <path d="M239.75,293.4C238.198,295.162 237.25,297.467 237.25,300C237.25,302.533 238.198,304.837 239.75,306.599C241.302,304.837 242.25,302.534 242.25,300C242.25,297.466 241.302,295.162 239.75,293.4Z" style="fill:rgb(234,86,75);fill-rule:nonzero;"/>
        </g>
        <path d="M247.25,290C244.26,290 241.583,291.32 239.75,293.4C239.317,293.892 238.938,294.43 238.606,295L240.894,295C241.258,295.625 241.541,296.299 241.765,297L237.721,297C237.518,297.643 237.371,298.309 237.302,299L242.181,299C242.215,299.33 242.249,299.66 242.249,300C242.249,300.338 242.229,300.671 242.196,301L237.301,301C237.37,301.691 237.517,302.357 237.72,303L241.776,303C241.553,303.704 241.254,304.372 240.89,305L238.605,305C238.936,305.568 239.316,306.107 239.749,306.599C241.582,308.68 244.259,310 247.249,310C252.771,310 257.249,305.521 257.249,300C257.25,294.477 252.772,290 247.25,290Z" style="fill:rgb(233,212,25);fill-rule:nonzero;"/>
        <path d="M264.75,281C266.956,281 268.75,282.794 268.75,285L268.75,315C268.75,317.206 266.956,319 264.75,319L214.75,319C212.544,319 210.75,317.206 210.75,315L210.75,285C210.75,282.794 212.544,281 214.75,281L264.75,281M264.75,280L214.75,280C212,280 209.75,282.25 209.75,285L209.75,315C209.75,317.75 212,320 214.75,320L264.75,320C267.5,320 269.75,317.75 269.75,315L269.75,285C269.75,282.25 267.5,280 264.75,280Z" style="fill:rgb(118,132,183);fill-rule:nonzero;"/>
    </g>
</svg>
