<?xml version="1.0" encoding="UTF-8" standalone="no"?>
<!DOCTYPE svg PUBLIC "-//W3C//DTD SVG 1.1//EN" "http://www.w3.org/Graphics/SVG/1.1/DTD/svg11.dtd">
<svg width="100%" height="100%" viewBox="0 0 1360 1360" version="1.1" xmlns="http://www.w3.org/2000/svg" xmlns:xlink="http://www.w3.org/1999/xlink" xml:space="preserve" style="fill-rule:evenodd;clip-rule:evenodd;stroke-linejoin:round;stroke-miterlimit:1.41421;">
    <path id="layer1" d="M274,1281C236,1258 216,1211 224,1166C229,1138 253,1111 338,1032C424,952 720.063,723.086 754.063,693.086C759.063,689.086 225,240 225,181C225,139 230,126 253,103C292,63 359,64 417,105C439,122 779,366 799,380C819,394 899,451 977,508C1103,599 1121,616 1131,651C1149,711 1128,746 1028,819C718,1048 400,1275 373,1286C330,1305 311,1304 274,1281Z" style="fill-rule:nonzero;"/>
</svg>
