<?xml version="1.0" encoding="UTF-8" standalone="no"?>
<!DOCTYPE svg PUBLIC "-//W3C//DTD SVG 1.1//EN" "http://www.w3.org/Graphics/SVG/1.1/DTD/svg11.dtd">
<svg width="100%" height="100%" viewBox="0 0 322 322" version="1.1" xmlns="http://www.w3.org/2000/svg" xmlns:xlink="http://www.w3.org/1999/xlink" xml:space="preserve" xmlns:serif="http://www.serif.com/" style="fill-rule:evenodd;clip-rule:evenodd;stroke-linejoin:round;stroke-miterlimit:1.41421;">
    <g transform="matrix(-1,0,0,1,398.673,-96.7947)">
        <path d="M169.982,299.846C154.09,278.64 144.673,252.308 144.673,223.795C144.673,153.701 201.58,96.795 271.673,96.795C341.766,96.795 398.673,153.701 398.673,223.795C398.673,293.888 341.766,350.795 271.673,350.795C244.074,350.795 218.519,341.972 197.677,326.995L197.774,327.089L104.608,418.795C87.063,418.449 78.085,411.639 76.686,395.885L169.982,299.846ZM271.673,128.545C324.243,128.545 366.923,171.225 366.923,223.795C366.923,276.365 324.243,319.045 271.673,319.045C219.103,319.045 176.423,276.365 176.423,223.795C176.423,171.225 219.103,128.545 271.673,128.545Z"/>
    </g>
</svg>
