<?xml version="1.0" encoding="UTF-8" standalone="no"?>
<!DOCTYPE svg PUBLIC "-//W3C//DTD SVG 1.1//EN" "http://www.w3.org/Graphics/SVG/1.1/DTD/svg11.dtd">
<svg width="100%" height="100%" viewBox="0 0 60 40" version="1.1" xmlns="http://www.w3.org/2000/svg" xmlns:xlink="http://www.w3.org/1999/xlink" xml:space="preserve" style="fill-rule:evenodd;clip-rule:evenodd;stroke-linejoin:round;stroke-miterlimit:1.41421;">
    <g transform="matrix(1,0,0,1,-129.75,-280)">
        <path d="M189.75,315C189.75,317.75 187.5,320 184.75,320L134.75,320C132,320 129.75,317.75 129.75,315L129.75,285C129.75,282.25 132,280 134.75,280L184.75,280C187.5,280 189.75,282.25 189.75,285L189.75,315Z" style="fill:rgb(243,244,244);fill-rule:nonzero;"/>
        <path d="M130.75,290L130.75,285C130.75,282.25 133,280 135.75,280L183.75,280C186.5,280 188.75,282.25 188.75,285L188.75,290" style="fill:rgb(85,101,175);fill-rule:nonzero;"/>
        <path d="M188.75,310L188.75,315C188.75,317.75 186.5,319 183.75,319L135.75,319C133,319 130.75,317.75 130.75,315L130.75,310" style="fill:rgb(230,161,36);fill-rule:nonzero;"/>
        <g>
            <path d="M147.137,303.379C147.543,302.229 147.828,301.492 147.996,301.168L151.371,294.293L153.84,294.293L147.996,305.715L145.387,305.715L144.395,294.293L146.7,294.293L147.098,301.168C147.118,301.402 147.129,301.75 147.129,302.207C147.117,302.744 147.102,303.135 147.082,303.379L147.137,303.379Z" style="fill:rgb(85,101,175);fill-rule:nonzero;"/>
            <path d="M152.809,305.715L155.247,294.293L157.63,294.293L155.192,305.715L152.809,305.715Z" style="fill:rgb(85,101,175);fill-rule:nonzero;"/>
            <path d="M164.934,302.34C164.934,303.43 164.547,304.289 163.778,304.922C163.007,305.555 161.962,305.871 160.645,305.871C159.493,305.871 158.567,305.637 157.864,305.168L157.864,303.027C158.868,303.589 159.802,303.871 160.661,303.871C161.243,303.871 161.7,303.762 162.028,303.539C162.356,303.318 162.52,303.016 162.52,302.629C162.52,302.406 162.485,302.209 162.415,302.039C162.345,301.871 162.243,301.713 162.114,301.566C161.983,301.42 161.661,301.156 161.145,300.769C160.426,300.252 159.92,299.744 159.629,299.237C159.336,298.732 159.191,298.188 159.191,297.604C159.191,296.932 159.351,296.333 159.675,295.803C159.997,295.275 160.456,294.864 161.054,294.569C161.65,294.275 162.335,294.128 163.113,294.128C164.242,294.128 165.277,294.386 166.215,294.901L165.363,296.721C164.551,296.336 163.801,296.143 163.113,296.143C162.679,296.143 162.326,296.26 162.051,296.495C161.774,296.729 161.637,297.04 161.637,297.425C161.637,297.743 161.723,298.021 161.895,298.257C162.067,298.494 162.452,298.808 163.051,299.198C163.68,299.615 164.153,300.075 164.465,300.577C164.777,301.082 164.934,301.668 164.934,302.34Z" style="fill:rgb(85,101,175);fill-rule:nonzero;"/>
            <path d="M172.598,302.996L168.903,302.996L167.559,305.715L165.059,305.715L171.043,294.246L173.957,294.246L175.105,305.715L172.785,305.715L172.598,302.996ZM172.48,300.965L172.277,298.231C172.224,297.549 172.199,296.89 172.199,296.254L172.199,295.973C171.969,296.598 171.685,297.26 171.347,297.957L169.878,300.965L172.48,300.965Z" style="fill:rgb(85,101,175);fill-rule:nonzero;"/>
        </g>
        <path d="M188.281,281.469C189.187,282.375 189.75,283.625 189.75,285L189.75,315C189.75,316.375 189.188,317.625 188.281,318.531C187.374,319.437 186.125,320 184.75,320L159.75,320L134.75,320C133.375,320 132.125,319.438 131.219,318.531L188.281,281.469Z" style="fill:white;fill-opacity:0.04;fill-rule:nonzero;"/>
        <path d="M184.75,281C186.956,281 188.75,282.794 188.75,285L188.75,315C188.75,317.206 186.956,319 184.75,319L134.75,319C132.544,319 130.75,317.206 130.75,315L130.75,285C130.75,282.794 132.544,281 134.75,281L184.75,281M184.75,280L134.75,280C132,280 129.75,282.25 129.75,285L129.75,315C129.75,317.75 132,320 134.75,320L184.75,320C187.5,320 189.75,317.75 189.75,315L189.75,285C189.75,282.25 187.5,280 184.75,280Z" style="fill:rgb(248,248,249);fill-rule:nonzero;"/>
    </g>
</svg>
